<svg width="306" height="330" viewBox="0 0 306 330" fill="none" xmlns="http://www.w3.org/2000/svg">
<path d="M245.001 295.645C235.263 296.083 229.353 295.754 222.022 294.331C216.661 293.347 208.017 290.94 202.874 288.97C197.731 287.11 189.525 283.062 184.492 280.108C179.459 277.044 171.581 271.792 166.985 268.29C162.39 264.789 154.073 257.896 148.712 252.972C143.35 248.048 133.184 238.948 115.786 221.989C122.9 216.624 183.617 108.32 191.386 104.491C199.483 100.442 208.674 96.8311 215.458 95.0804C223.445 93.0016 230.23 92.0171 240.624 91.6888C242.172 91.625 243.626 91.5775 245.001 91.5472L227.416 134.539C227.18 134.589 226.95 134.639 226.728 134.691C222.351 135.676 213.817 138.74 207.799 141.584C201.781 144.539 192.918 149.79 188.104 153.401C183.289 156.902 175.192 163.686 170.049 168.391C164.906 173.096 157.137 180.755 152.761 185.351L144.773 193.667C171.69 219.928 183.617 230.76 188.65 234.48C193.793 238.309 201.89 243.453 206.704 245.86C211.519 248.267 219.178 251.222 223.664 252.316C224.761 252.596 225.982 252.858 227.271 253.094L227 254L245.001 295.645Z" fill="url(#paint0_linear_493_956)"/>
<path d="M61.6611 35.1808C71.3271 34.7464 77.1921 35.0716 84.4688 36.4835C89.7906 37.461 98.371 39.8508 103.476 41.8058C108.58 43.6522 116.726 47.6703 121.722 50.6026C126.718 53.6437 134.537 58.8576 139.099 62.3331C143.66 65.8086 151.915 72.6508 157.236 77.5382C162.558 82.4256 172.65 91.457 189.919 108.291C182.859 113.614 122.59 221.119 114.879 224.92C106.842 228.939 97.7191 232.523 90.9854 234.261C83.0569 236.324 76.3227 237.301 66.0049 237.627C64.468 237.69 63.026 237.738 61.6611 237.768V201.571C62.732 201.641 63.7437 201.682 64.6465 201.682C68.6668 201.682 75.5124 200.886 79.75 199.863C84.0963 198.841 92.5717 195.66 98.5479 192.706C104.524 189.639 113.326 184.186 118.106 180.437C122.887 176.801 130.927 169.758 136.034 164.873C141.141 159.988 148.856 152.035 153.202 147.264L161.134 138.63C134.404 111.364 122.561 100.117 117.562 96.254C112.456 92.2778 104.416 86.9379 99.6348 84.4386C94.854 81.9393 87.248 78.8726 82.793 77.7364C78.1207 76.4868 71.1664 75.5779 66.4941 75.6915C65.0334 75.6915 63.3624 75.777 61.6611 75.9239V35.1808Z" fill="url(#paint1_linear_493_956)"/>
<path d="M239.668 91.2974C226.336 93.5775 213.589 104.298 204.249 121.22C193.662 140.402 187.733 166.373 187.733 193.417C187.733 220.462 193.663 246.433 204.25 265.615C214.78 284.693 229.633 295.547 244.766 295.658C236.991 296.077 232.456 295.742 227.041 294.33C223.041 293.342 216.755 290.928 213.164 288.954C209.572 287.088 204.021 283.139 200.92 280.397C197.818 277.654 192.839 272.169 189.982 268.33C187.126 264.6 183.371 258.675 181.738 255.384C180.024 252.093 177.657 246.608 176.433 243.317C175.208 240.026 173.249 233.773 172.188 229.604C171.126 225.435 169.739 217.427 169.086 212.051C168.433 206.676 167.862 198.449 167.862 193.951C167.862 189.453 168.433 181.444 169.086 176.069C169.739 170.803 171.371 162.684 172.759 157.967C174.065 153.36 176.759 145.79 178.8 141.292C180.759 136.795 184.921 129.445 187.941 124.947C191.043 120.449 195.941 114.415 198.88 111.343C201.818 108.381 207.451 103.883 211.532 101.25C215.532 98.6178 221.817 95.3265 225.408 94.1196C229.106 92.7553 234.223 91.7384 239.668 91.2974ZM244.999 132.629C241.679 132.687 237.147 133.428 234.796 134.27C232.347 135.148 227.938 137.452 225 139.426C221.572 141.62 217.654 145.679 213.98 150.616C210.226 155.662 207.368 160.709 205.654 165.426C204.277 169.129 202.685 174.953 201.953 178.92L201.684 180.456C201.015 184.423 200.512 190.247 200.512 193.95C200.512 197.899 201.247 205.029 202.145 209.856C203.124 214.683 205.001 221.595 206.471 225.215C207.858 228.835 211.042 234.539 213.572 237.831C216.103 241.122 220.266 245.401 222.96 247.375C225.654 249.24 230.225 251.653 233.163 252.531C236.102 253.518 240.918 254.287 244.02 254.287C244.326 254.287 244.654 254.276 244.999 254.261V294.339C230.453 294.339 215.864 283.926 205.405 264.977C194.949 246.032 189.054 220.292 189.054 193.417C189.054 166.544 194.948 140.804 205.404 121.859C215.868 102.901 230.46 92.1614 244.999 92.1606V132.629Z" fill="url(#paint2_linear_493_956)"/>
<path d="M61 35.6602C75.5377 35.6602 89.6303 46.131 100.096 65.0918C110.552 84.0368 116.446 109.777 116.446 136.651C116.446 163.525 110.552 189.265 100.096 208.21C89.6345 227.163 75.5437 237.34 61 237.34V196.989C64.3237 196.932 68.862 196.197 71.2158 195.36C73.6675 194.489 78.0805 192.203 81.0225 190.243C84.4548 188.065 88.3772 184.036 92.0547 179.136C95.8139 174.127 98.6744 169.118 100.391 164.436C101.862 160.515 103.578 154.199 104.231 150.279C104.967 146.359 105.539 140.043 105.539 136.123C105.539 132.203 104.804 125.125 103.905 120.334C102.925 115.543 101.044 108.682 99.5732 105.089C98.1839 101.495 94.9972 95.8331 92.4639 92.5664C89.9305 89.2996 85.7623 85.0528 83.0654 83.0928C80.3686 81.2417 75.7926 78.8458 72.8506 77.9746C69.9087 76.9946 65.0869 76.2325 61.9814 76.2324C61.6748 76.2324 61.3461 76.2427 61 76.2578V35.6602ZM67.4746 35.0039C71.821 35.0476 75.1845 35.5052 78.9795 36.4863C82.9839 37.4664 89.2763 39.8622 92.8721 41.8223C96.4679 43.6734 102.025 47.5931 105.131 50.3154C108.236 53.0378 113.222 58.4828 116.082 62.2939C118.942 65.9963 122.702 71.8759 124.336 75.1426C126.052 78.4093 128.422 83.8543 129.647 87.1211C130.873 90.3879 132.835 96.5945 133.897 100.732C134.96 104.87 136.349 112.82 137.003 118.155C137.657 123.491 138.228 131.657 138.229 136.122C138.229 140.587 137.657 148.536 137.003 153.872C136.349 159.099 134.714 167.157 133.325 171.839C132.018 176.412 129.32 183.926 127.277 188.391C125.316 192.855 121.149 200.151 118.125 204.615C115.02 209.08 110.116 215.069 107.174 218.118C104.232 221.058 98.593 225.523 94.5068 228.137C90.5025 230.75 84.2101 234.017 80.6143 235.215C77.3654 236.403 73.0236 237.324 68.3252 237.828C80.7993 234.985 92.3836 224.914 101.251 208.849C111.838 189.667 117.767 163.696 117.767 136.651C117.767 109.606 111.838 83.6357 101.251 64.4541C92.1853 48.0293 80.2766 37.6397 67.4746 35.0039Z" fill="url(#paint3_linear_493_956)"/>
<defs>
<linearGradient id="paint0_linear_493_956" x1="180.394" y1="295.826" x2="180.394" y2="91.5474" gradientUnits="userSpaceOnUse">
<stop stop-color="#688BEE"/>
<stop offset="1" stop-color="#3967E9"/>
</linearGradient>
<linearGradient id="paint1_linear_493_956" x1="125.79" y1="35.0012" x2="125.79" y2="237.768" gradientUnits="userSpaceOnUse">
<stop stop-color="#7394EF"/>
<stop offset="1" stop-color="#2D5EE8"/>
</linearGradient>
<linearGradient id="paint2_linear_493_956" x1="206.431" y1="91.0086" x2="206.431" y2="295.827" gradientUnits="userSpaceOnUse">
<stop stop-color="#688BEE"/>
<stop offset="1" stop-color="#3967E9"/>
</linearGradient>
<linearGradient id="paint3_linear_493_956" x1="99.6143" y1="238.303" x2="99.6143" y2="35" gradientUnits="userSpaceOnUse">
<stop stop-color="#7394EF"/>
<stop offset="1" stop-color="#2D5EE8"/>
</linearGradient>
</defs>
</svg>
