<svg width="708" height="708" viewBox="0 0 708 708" fill="none" xmlns="http://www.w3.org/2000/svg">
<path d="M145.476 50.3496C167.84 49.3444 182.939 50.5154 199.775 53.7822C212.089 56.0438 231.94 61.5725 243.751 66.0957C255.562 70.3676 274.408 79.6654 285.968 86.4502C297.527 93.4863 315.621 105.549 326.175 113.59C336.729 121.631 355.827 137.463 368.141 148.771C380.454 160.079 403.804 180.975 443.759 219.925C427.425 232.239 287.978 480.977 270.137 489.772C251.541 499.07 230.433 507.362 214.853 511.383C196.508 516.157 180.928 518.419 157.056 519.173C153.499 519.32 148.634 519.966 145.476 520.035V435.645C148.52 435.875 151.4 436.005 153.914 436.005C163.216 436.005 179.054 434.164 188.858 431.799C198.914 429.433 218.524 422.073 232.351 415.239C246.178 408.142 266.542 395.525 277.604 386.851C288.665 378.439 307.269 362.142 319.085 350.839C330.901 339.536 348.75 321.137 358.806 310.097L377.158 290.119C315.314 227.034 287.911 201.012 276.347 192.074C264.531 182.874 245.927 170.52 234.865 164.737C223.804 158.954 206.205 151.857 195.897 149.229C185.087 146.337 168.998 144.234 158.188 144.497C154.371 144.497 149.933 144.75 145.476 145.175V50.3496Z" fill="url(#paint0_linear_497_1360)"/>
<path d="M145.477 51.8765C179.113 51.8767 211.719 76.1033 235.933 119.973C260.126 163.806 273.764 223.362 273.764 285.542C273.764 347.721 260.126 407.276 235.933 451.11C211.728 494.962 179.126 518.508 145.477 518.508V425.15C153.167 425.017 163.666 423.314 169.112 421.379C174.785 419.364 184.996 414.074 191.803 409.539C199.744 404.5 208.82 395.177 217.329 383.839C226.027 372.25 232.645 360.66 236.615 349.827C240.019 340.757 243.99 326.144 245.503 317.074C247.205 308.004 248.528 293.391 248.528 284.321C248.528 275.251 246.826 258.874 244.746 247.789C242.477 236.703 238.128 220.83 234.725 212.516C231.51 204.202 224.136 191.101 218.274 183.542C212.413 175.984 202.769 166.158 196.529 161.623C190.29 157.34 179.701 151.796 172.895 149.781C166.088 147.513 154.931 145.751 147.746 145.75C147.037 145.75 146.277 145.769 145.477 145.804V51.8765ZM158.641 50.0073C169.592 50.1137 177.773 51.3817 187.075 53.7866C196.34 56.0542 210.9 61.5973 219.22 66.1323C227.539 70.4155 240.397 79.4851 247.582 85.7837C254.767 92.0822 266.301 104.679 272.919 113.498C279.537 122.064 288.235 135.67 292.017 143.228C295.987 150.786 301.471 163.383 304.308 170.942C307.144 178.5 311.682 192.861 314.14 202.435C316.598 212.009 319.812 230.401 321.325 242.747C322.838 255.092 324.161 273.988 324.161 284.318C324.161 294.648 322.838 313.04 321.325 325.385C319.813 337.479 316.031 356.123 312.816 366.957C309.791 377.538 303.551 394.923 298.824 405.252C294.286 415.582 284.643 432.463 277.646 442.792C270.461 453.122 259.117 466.979 252.31 474.034C245.503 480.836 232.455 491.167 223.001 497.213C213.736 503.26 199.176 510.818 190.856 513.589C185.256 515.638 175.7 517.462 165.857 518.78C193.408 511.19 218.905 488.28 238.606 452.586C263.102 408.206 276.818 348.116 276.818 285.542C276.818 222.967 263.102 162.878 238.606 118.498C217.203 79.7196 188.949 55.4814 158.641 50.0073Z" fill="url(#paint1_linear_497_1360)"/>
<path d="M570.045 658.048C547.686 659.166 532.581 658.071 515.729 654.889C503.404 652.689 483.525 647.26 471.692 642.796C459.86 638.584 440.967 629.381 429.373 622.654C417.779 615.676 399.625 603.705 389.03 595.717C378.436 587.729 359.259 571.994 346.889 560.748C334.519 549.501 309.411 528.706 269.26 489.957C285.532 477.562 425.38 228.142 443.177 219.257C461.726 209.866 482.793 201.468 498.352 197.37C516.672 192.503 532.241 190.163 556.109 189.289C556.162 189.173 565.417 188.016 567.685 188.369L568.109 272.758C565.064 272.543 562.183 272.429 559.669 272.441C550.367 272.488 534.539 274.407 524.746 276.822C514.702 279.238 495.129 286.697 481.337 293.601C467.545 300.767 447.246 313.486 436.228 322.216C425.209 330.682 406.687 347.073 394.928 358.435C383.169 369.797 365.412 388.286 355.411 399.377L337.16 419.446C399.32 482.219 426.854 508.104 438.463 516.983C450.325 526.124 468.991 538.384 480.082 544.111C491.172 549.838 508.805 556.847 519.126 559.424C529.951 562.261 546.051 564.283 556.86 563.966C560.677 563.947 565.113 563.671 569.569 563.224L570.045 658.048Z" fill="url(#paint2_linear_497_1360)"/>
<path d="M570.037 656.522C536.401 656.691 503.674 632.628 479.24 588.881C454.826 545.169 440.89 485.683 440.577 423.504C440.265 361.326 453.603 301.702 477.576 257.748C501.559 213.775 534.043 190.065 567.692 189.896L567.681 187.668L567.683 187.667L568.163 283.253C560.474 283.425 549.982 285.18 544.546 287.142C538.883 289.186 528.699 294.528 521.915 299.097C513.999 304.176 504.97 313.544 496.518 324.924C487.879 336.557 481.319 348.18 477.403 359.033C474.045 368.12 470.147 382.753 468.68 391.831C467.024 400.909 465.774 415.528 465.819 424.598C465.865 433.668 467.65 450.036 469.785 461.111C472.11 472.185 476.539 488.036 479.984 496.333C483.24 504.631 490.68 517.694 496.579 525.223C502.479 532.752 512.172 542.53 518.434 547.034C524.696 551.285 535.312 556.775 542.128 558.756C548.947 560.99 560.112 562.696 567.297 562.66C568.006 562.657 568.766 562.634 569.567 562.595L570.047 658.05L570.045 658.051L570.037 656.522ZM556.883 658.457C545.932 658.406 537.745 657.179 528.431 654.821C519.155 652.6 504.568 647.13 496.225 642.637C487.884 638.395 474.98 629.391 467.763 623.128C460.547 616.866 448.95 604.326 442.288 595.541C435.627 587.008 426.86 573.447 423.041 565.908C419.032 558.37 413.486 545.8 410.612 538.256C407.737 530.712 403.127 516.374 400.62 506.813C398.114 497.251 394.808 478.875 393.233 466.538C391.659 454.2 390.239 435.311 390.188 424.981C390.136 414.652 391.367 396.253 392.818 383.9C394.27 371.799 397.958 353.136 401.118 342.287C404.09 331.69 410.242 314.274 414.917 303.921C419.403 293.568 428.962 276.64 435.906 266.275C443.039 255.909 454.314 241.995 461.086 234.907C467.859 228.07 480.853 217.674 490.277 211.58C499.511 205.487 514.033 197.856 522.338 195.043C527.929 192.966 537.477 191.094 547.313 189.727C519.799 197.454 494.417 220.491 474.895 256.285C450.622 300.788 437.208 360.946 437.523 423.52C437.837 486.093 451.855 546.112 476.573 590.37C498.172 629.04 526.547 653.136 556.883 658.457Z" fill="url(#paint3_linear_497_1360)"/>
<defs>
<linearGradient id="paint0_linear_497_1360" x1="294.617" y1="49.9993" x2="294.617" y2="520.037" gradientUnits="userSpaceOnUse">
<stop stop-color="#3C05C7"/>
<stop offset="1" stop-color="#E8EDFC"/>
</linearGradient>
<linearGradient id="paint1_linear_497_1360" x1="234.819" y1="519.877" x2="234.819" y2="49.9983" gradientUnits="userSpaceOnUse">
<stop stop-color="#3C05C7"/>
<stop offset="1" stop-color="#E8EDFC"/>
</linearGradient>
<linearGradient id="paint2_linear_497_1360" x1="420.081" y1="659.152" x2="417.718" y2="189.048" gradientUnits="userSpaceOnUse">
<stop stop-color="#3C05C7"/>
<stop offset="1" stop-color="#E8EDFC"/>
</linearGradient>
<linearGradient id="paint3_linear_497_1360" x1="478.336" y1="187.015" x2="480.707" y2="658.849" gradientUnits="userSpaceOnUse">
<stop stop-color="#3C05C7"/>
<stop offset="1" stop-color="#E8EDFC"/>
</linearGradient>
</defs>
</svg>
