<svg width="730" height="787" viewBox="0 0 730 787" fill="none" xmlns="http://www.w3.org/2000/svg">
<path d="M145.523 83.4965C168.583 82.4602 184.151 83.6683 201.51 87.0366C214.206 89.3685 234.675 95.0691 246.852 99.7329C259.03 104.138 278.463 113.724 290.381 120.719C302.3 127.974 320.954 140.411 331.836 148.703C342.719 156.994 362.41 173.317 375.106 184.976C387.802 196.636 411.879 218.182 453.076 258.342C436.234 271.038 292.456 527.501 274.058 536.574C254.885 546.16 233.12 554.711 217.056 558.857C198.142 563.78 182.078 566.111 157.463 566.888C153.797 567.039 148.779 567.706 145.523 567.778V480.765C148.661 481.003 151.631 481.135 154.223 481.135C163.814 481.135 180.144 479.238 190.253 476.799C200.622 474.36 220.841 466.772 235.098 459.725C249.355 452.407 270.351 439.398 281.756 430.455C293.162 421.782 312.344 404.978 324.527 393.324C336.71 381.67 355.113 362.698 365.482 351.315L384.405 330.717C320.639 265.672 292.384 238.84 280.46 229.625C268.277 220.14 249.095 207.401 237.69 201.439C226.285 195.476 208.14 188.159 197.512 185.449C186.366 182.467 169.776 180.299 158.629 180.57C154.694 180.57 150.119 180.83 145.523 181.268V83.4965Z" fill="url(#paint0_linear_505_1533)"/>
<path d="M145.524 85.0711C180.206 85.0715 213.824 110.052 238.79 155.285C263.735 200.48 277.798 261.886 277.798 325.998C277.798 390.109 263.736 451.515 238.79 496.711C213.834 541.926 180.219 566.203 145.523 566.203V469.945C153.453 469.808 164.279 468.053 169.895 466.057C175.743 463.979 186.271 458.524 193.289 453.848C201.477 448.653 210.836 439.041 219.609 427.351C228.577 415.402 235.401 403.451 239.495 392.281C243.004 382.929 247.098 367.862 248.658 358.511C250.413 349.159 251.777 334.091 251.777 324.739C251.777 315.387 250.022 298.502 247.878 287.072C245.538 275.642 241.054 259.277 237.545 250.704C234.231 242.131 226.628 228.622 220.584 220.829C214.54 213.036 204.597 202.905 198.163 198.229C191.729 193.813 180.812 188.098 173.793 186.019C166.774 183.681 155.272 181.863 147.863 181.863C147.132 181.863 146.349 181.883 145.523 181.919V83.4969L145.524 83.4959V85.0711ZM159.094 83.1453C170.387 83.2547 178.823 84.5619 188.415 87.0418C197.968 89.3798 212.979 95.0954 221.558 99.7713C230.136 104.187 243.393 113.539 250.802 120.033C258.21 126.527 270.103 139.517 276.927 148.609C283.75 157.442 292.718 171.469 296.617 179.263C300.711 187.056 306.366 200.045 309.29 207.838C312.214 215.631 316.893 230.438 319.428 240.309C321.962 250.181 325.277 269.145 326.837 281.874C328.397 294.603 329.761 314.087 329.761 324.737C329.761 335.388 328.397 354.351 326.837 367.08C325.277 379.549 321.378 398.773 318.063 409.943C314.944 420.854 308.51 438.778 303.636 449.429C298.957 460.079 289.014 477.485 281.801 488.136C274.392 498.786 262.694 513.074 255.676 520.347C248.657 527.361 235.205 538.012 225.457 544.247C215.904 550.481 200.893 558.275 192.314 561.133C186.538 563.246 176.681 565.125 166.529 566.484C194.94 558.661 221.233 535.04 241.548 498.233C266.805 452.473 280.946 390.517 280.946 325.998C280.946 261.479 266.805 199.522 241.548 153.763C219.479 113.778 190.346 88.7882 159.094 83.1453Z" fill="url(#paint1_linear_505_1533)"/>
<foreignObject x="0" y="0" width="0" height="0"><div xmlns="http://www.w3.org/1999/xhtml" style="backdrop-filter:blur(46.31px);clip-path:url(#bgblur_0_505_1533_clip_path);height:100%;width:100%"></div></foreignObject><path data-figma-bg-blur-radius="92.6182" d="M145.523 567.778C180.322 567.778 212.152 537.747 236.758 492.784C261.365 447.821 275.188 386.839 275.188 323.252C275.188 259.665 261.365 198.682 236.758 153.719C212.152 108.757 178.778 83.4967 143.979 83.4967L145.523 181.578C145.523 181.578 178.872 179.102 206.936 205.759C207.943 206.715 208.943 207.709 209.935 208.742C232.299 230.306 251.683 277.925 251.683 323.252C251.683 368.578 238.714 408.037 208.701 440.588C176.536 472.353 145.523 469.967 145.523 469.967L145.523 567.778Z" fill="#B1ACAC" fill-opacity="0.3"/>
<path d="M583.285 710.08C560.231 711.232 544.657 710.102 527.281 706.821C514.573 704.553 494.077 698.955 481.876 694.353C469.676 690.009 450.195 680.521 438.242 673.585C426.287 666.391 407.57 654.047 396.646 645.811C385.723 637.574 365.949 621.351 353.194 609.755C340.44 598.16 314.552 576.717 273.155 536.765C289.933 523.982 434.123 266.819 452.475 257.654C471.6 247.971 493.321 239.311 509.364 235.085C528.253 230.067 544.306 227.654 568.916 226.753C572.582 226.583 577.596 225.892 580.852 225.804L581.289 312.816C578.149 312.594 575.179 312.476 572.587 312.489C562.996 312.537 546.675 314.517 536.578 317.007C526.222 319.498 506.042 327.188 491.821 334.306C477.601 341.695 456.67 354.809 445.31 363.81C433.948 372.54 414.851 389.441 402.727 401.156C390.602 412.871 372.293 431.934 361.982 443.369L343.163 464.062C407.256 528.787 435.645 555.476 447.615 564.631C459.846 574.055 479.092 586.697 490.527 592.602C501.962 598.507 520.143 605.733 530.784 608.39C541.945 611.315 558.546 613.399 569.69 613.072C573.626 613.053 578.2 612.77 582.794 612.309L583.285 710.08Z" fill="url(#paint2_linear_505_1533)"/>
<path d="M583.276 708.505C548.596 708.679 514.853 683.868 489.659 638.76C464.487 593.691 450.116 532.357 449.794 468.246C449.472 404.135 463.225 342.659 487.943 297.339C512.672 251.999 546.164 227.553 580.86 227.379L581.343 323.637C573.415 323.814 562.597 325.623 556.992 327.647C551.154 329.754 540.654 335.262 533.659 339.973C525.497 345.21 516.187 354.868 507.472 366.602C498.565 378.597 491.801 390.581 487.763 401.772C484.301 411.141 480.282 426.229 478.77 435.588C477.062 444.949 475.773 460.023 475.82 469.375C475.868 478.727 477.707 495.603 479.909 507.022C482.306 518.44 486.872 534.783 490.425 543.337C493.782 551.893 501.453 565.364 507.536 573.127C513.618 580.89 523.613 590.97 530.07 595.614C536.526 599.997 547.472 605.658 554.501 607.701C561.531 610.003 573.043 611.764 580.451 611.727C581.182 611.723 581.966 611.699 582.791 611.659L583.285 710.08L583.284 710.081L583.276 708.505ZM569.713 710.5C558.422 710.447 549.98 709.182 540.377 706.751C530.813 704.461 515.772 698.821 507.17 694.188C498.57 689.815 485.266 680.53 477.825 674.073C470.384 667.616 458.427 654.687 451.557 645.629C444.69 636.831 435.651 622.848 431.712 615.075C427.579 607.302 421.86 594.342 418.897 586.564C415.933 578.785 411.179 564.002 408.595 554.143C406.011 544.285 402.602 525.338 400.978 512.617C399.355 499.896 397.892 480.419 397.838 469.769C397.785 459.118 399.054 440.148 400.55 427.412C402.047 414.935 405.85 395.692 409.108 384.505C412.172 373.579 418.516 355.623 423.336 344.948C427.962 334.273 437.817 316.818 444.977 306.131C452.332 295.444 463.957 281.097 470.939 273.788C477.922 266.739 491.321 256.021 501.037 249.737C510.559 243.455 525.532 235.586 534.096 232.685C539.86 230.544 549.705 228.614 559.848 227.204C531.479 235.172 505.307 258.924 485.178 295.83C460.151 341.717 446.321 403.744 446.646 468.262C446.97 532.78 461.422 594.664 486.909 640.297C509.178 680.168 538.434 705.013 569.713 710.5Z" fill="url(#paint3_linear_505_1533)"/>
<foreignObject x="0" y="0" width="0" height="0"><div xmlns="http://www.w3.org/1999/xhtml" style="backdrop-filter:blur(46.31px);clip-path:url(#bgblur_1_505_1533_clip_path);height:100%;width:100%"></div></foreignObject><path data-figma-bg-blur-radius="92.6182" d="M580.852 225.804C546.053 225.979 514.374 256.17 489.994 301.256C465.614 346.342 452.097 407.393 452.416 470.979C452.736 534.565 466.866 595.478 491.698 640.316C516.53 685.155 550.03 710.246 584.829 710.072L582.792 611.999C582.792 611.999 549.456 614.642 521.258 588.127C520.246 587.176 519.241 586.187 518.245 585.16C495.772 563.708 476.149 516.187 475.922 470.861C475.694 425.535 488.465 386.012 518.313 353.31C550.318 321.384 581.343 323.614 581.343 323.614L580.852 225.804Z" fill="#B1ACAC" fill-opacity="0.3"/>
<defs>
<clipPath id="bgblur_0_505_1533_clip_path" transform="translate(0 0)"><path d="M145.523 567.778C180.322 567.778 212.152 537.747 236.758 492.784C261.365 447.821 275.188 386.839 275.188 323.252C275.188 259.665 261.365 198.682 236.758 153.719C212.152 108.757 178.778 83.4967 143.979 83.4967L145.523 181.578C145.523 181.578 178.872 179.102 206.936 205.759C207.943 206.715 208.943 207.709 209.935 208.742C232.299 230.306 251.683 277.925 251.683 323.252C251.683 368.578 238.714 408.037 208.701 440.588C176.536 472.353 145.523 469.967 145.523 469.967L145.523 567.778Z"/>
</clipPath><clipPath id="bgblur_1_505_1533_clip_path" transform="translate(0 0)"><path d="M580.852 225.804C546.053 225.979 514.374 256.17 489.994 301.256C465.614 346.342 452.097 407.393 452.416 470.979C452.736 534.565 466.866 595.478 491.698 640.316C516.53 685.155 550.03 710.246 584.829 710.072L582.792 611.999C582.792 611.999 549.456 614.642 521.258 588.127C520.246 587.176 519.241 586.187 518.245 585.16C495.772 563.708 476.149 516.187 475.922 470.861C475.694 425.535 488.465 386.012 518.313 353.31C550.318 321.384 581.343 323.614 581.343 323.614L580.852 225.804Z"/>
</clipPath><linearGradient id="paint0_linear_505_1533" x1="299.299" y1="83.1359" x2="299.299" y2="567.779" gradientUnits="userSpaceOnUse">
<stop stop-color="#595959"/>
<stop offset="1" stop-color="#262626"/>
</linearGradient>
<linearGradient id="paint1_linear_505_1533" x1="237.642" y1="567.615" x2="237.642" y2="83.1361" gradientUnits="userSpaceOnUse">
<stop stop-color="#595959"/>
<stop offset="1" stop-color="#262626"/>
</linearGradient>
<linearGradient id="paint2_linear_505_1533" x1="428.661" y1="711.217" x2="426.226" y2="226.58" gradientUnits="userSpaceOnUse">
<stop stop-color="#595959"/>
<stop offset="1" stop-color="#262626"/>
</linearGradient>
<linearGradient id="paint3_linear_505_1533" x1="488.735" y1="226.431" x2="491.17" y2="710.904" gradientUnits="userSpaceOnUse">
<stop stop-color="#595959"/>
<stop offset="1" stop-color="#262626"/>
</linearGradient>
</defs>
</svg>
