<svg width="730" height="787" viewBox="0 0 730 787" fill="none" xmlns="http://www.w3.org/2000/svg">
<rect width="730" height="786.154" fill="white"/>
<path d="M223.268 183.233C238.003 182.563 247.95 183.344 259.043 185.523C267.156 187.032 280.235 190.721 288.017 193.738C295.798 196.588 308.216 202.791 315.832 207.317C323.448 212.011 335.369 220.058 342.322 225.423C349.276 230.788 361.858 241.349 369.971 248.893C378.083 256.437 393.468 270.377 419.793 296.361C409.031 304.576 317.158 470.512 305.401 476.383C293.15 482.586 279.242 488.118 268.978 490.801C256.891 493.986 246.626 495.494 230.897 495.997C228.554 496.095 225.348 496.526 223.268 496.572V440.272C225.273 440.427 227.171 440.514 228.827 440.514C234.956 440.514 245.391 439.286 251.851 437.708C258.476 436.13 271.396 431.219 280.506 426.66C289.616 421.926 303.032 413.508 310.32 407.722C317.608 402.11 329.865 391.238 337.65 383.697C345.435 376.157 357.196 363.882 363.821 356.517L375.912 343.189C335.166 301.104 317.111 283.743 309.492 277.781C301.707 271.644 289.45 263.402 282.162 259.544C274.874 255.686 263.279 250.952 256.488 249.198C249.366 247.269 238.765 245.867 231.643 246.042C229.128 246.042 226.205 246.21 223.268 246.493V183.233Z" fill="url(#paint0_linear_532_68)"/>
<path d="M234.966 183.084C240.732 183.337 245.434 184.155 250.676 185.527C256.781 187.04 266.373 190.737 271.854 193.763C277.335 196.62 285.807 202.671 290.541 206.873C295.275 211.075 302.875 219.48 307.235 225.362C311.595 231.077 317.325 240.153 319.817 245.195C322.433 250.238 326.046 258.642 327.915 263.685C329.783 268.727 332.774 278.308 334.393 284.694C336.013 291.081 338.13 303.351 339.126 311.587C340.123 319.823 340.995 332.429 340.995 339.32C340.995 346.212 340.123 358.481 339.126 366.717C338.13 374.785 335.639 387.223 333.521 394.45C331.528 401.51 327.417 413.108 324.302 419.999C321.312 426.89 314.958 438.152 310.349 445.043C305.615 451.934 298.141 461.179 293.656 465.885C289.171 470.423 280.575 477.314 274.346 481.348C268.242 485.381 258.649 490.424 253.167 492.273C250.141 493.394 245.36 494.411 240.162 495.227C257.23 489.253 272.896 474.277 285.128 451.837C301.321 422.131 310.371 381.95 310.371 340.137C310.371 298.323 301.321 258.141 285.128 228.436C271.671 203.748 254.052 187.756 234.966 183.084ZM223.268 184.808C245.124 184.808 266.453 200.757 282.363 229.942C298.249 259.087 307.222 298.724 307.222 340.137C307.222 381.549 298.249 421.186 282.363 450.33C266.464 479.497 245.138 494.997 223.268 494.997V433.271C228.335 433.182 235.253 432.049 238.841 430.758C242.579 429.413 249.306 425.883 253.791 422.857C259.023 419.496 265.003 413.277 270.609 405.714C276.339 397.982 280.7 390.25 283.316 383.022C285.558 376.972 288.175 367.224 289.171 361.173C290.293 355.122 291.165 345.373 291.165 339.322C291.165 333.271 290.044 322.346 288.673 314.95C287.178 307.555 284.312 296.966 282.07 291.419C279.952 285.872 275.094 277.132 271.232 272.09C267.37 267.048 261.017 260.492 256.906 257.467C252.795 254.61 245.817 250.912 241.333 249.567C236.848 248.055 229.498 246.878 224.764 246.878C224.297 246.878 223.796 246.894 223.268 246.917V184.808Z" fill="url(#paint1_linear_532_68)"/>
<foreignObject x="0" y="0" width="0" height="0"><div xmlns="http://www.w3.org/1999/xhtml" style="backdrop-filter:blur(46.31px);clip-path:url(#bgblur_0_532_68_clip_path);height:100%;width:100%"></div></foreignObject><path data-figma-bg-blur-radius="92.6182" d="M223.267 496.572C245.503 496.572 265.843 477.142 281.566 448.05C297.29 418.958 306.123 379.501 306.123 338.359C306.123 297.217 297.29 257.76 281.566 228.668C265.843 199.577 244.517 183.233 222.281 183.233L223.267 246.694C223.267 246.694 244.577 245.092 262.51 262.339C263.154 262.958 263.793 263.601 264.426 264.269C278.717 278.221 291.103 309.032 291.103 338.359C291.103 367.686 282.816 393.217 263.638 414.278C243.084 434.831 223.267 433.287 223.267 433.287L223.267 496.572Z" fill="#B1ACAC" fill-opacity="0.3"/>
<path d="M502.995 588.644C488.264 589.39 478.312 588.659 467.209 586.536C459.089 585.068 445.991 581.446 438.195 578.469C430.399 575.658 417.951 569.519 410.313 565.031C402.674 560.376 390.713 552.39 383.733 547.061C376.753 541.732 364.118 531.234 355.968 523.732C347.818 516.229 331.276 502.356 304.822 476.506C315.544 468.235 407.683 301.843 419.409 295.916C431.629 289.651 445.508 284.048 455.76 281.313C467.83 278.067 478.088 276.505 493.813 275.922C496.156 275.812 499.36 275.365 501.44 275.308L501.72 331.608C499.713 331.464 497.816 331.387 496.159 331.395C490.031 331.426 479.601 332.707 473.149 334.318C466.531 335.93 453.637 340.906 444.549 345.511C435.463 350.292 422.088 358.778 414.829 364.601C407.569 370.25 395.366 381.184 387.618 388.764C379.871 396.344 368.172 408.679 361.583 416.078L349.559 429.466C390.514 471.344 408.654 488.613 416.302 494.536C424.118 500.634 436.416 508.813 443.723 512.633C451.03 516.454 462.648 521.13 469.447 522.849C476.579 524.742 487.187 526.091 494.308 525.879C496.823 525.866 499.746 525.683 502.681 525.384L502.995 588.644Z" fill="url(#paint2_linear_532_68)"/>
<path d="M502.988 587.067C481.127 587.178 459.718 571.335 443.665 542.233C427.634 513.171 418.466 473.581 418.26 432.17C418.055 390.759 426.83 351.079 442.571 321.855C458.325 292.609 479.573 276.998 501.448 276.886L501.438 274.842L501.439 274.841L501.755 338.61C496.689 338.724 489.776 339.894 486.195 341.203C482.464 342.566 475.754 346.13 471.284 349.178C466.069 352.567 460.12 358.817 454.552 366.408C448.86 374.169 444.538 381.922 441.958 389.163C439.746 395.225 437.177 404.987 436.211 411.043C435.119 417.099 434.296 426.853 434.326 432.903C434.356 438.954 435.532 449.873 436.939 457.261C438.471 464.649 441.388 475.224 443.658 480.759C445.804 486.295 450.705 495.01 454.592 500.033C458.478 505.056 464.865 511.579 468.991 514.583C473.116 517.419 480.111 521.082 484.602 522.403C489.095 523.893 496.451 525.032 501.184 525.008C501.652 525.005 502.153 524.988 502.68 524.962L502.996 588.644L502.995 588.645L502.988 587.067ZM491.287 588.853C485.525 588.629 480.822 587.835 475.577 586.49C469.465 585.009 459.855 581.36 454.358 578.362C448.863 575.533 440.362 569.525 435.607 565.347C430.852 561.169 423.211 552.804 418.822 546.943C414.433 541.251 408.658 532.204 406.141 527.174C403.5 522.145 399.846 513.76 397.952 508.727C396.058 503.694 393.02 494.128 391.369 487.75C389.718 481.371 387.539 469.112 386.502 460.882C385.464 452.651 384.53 440.05 384.495 433.159C384.461 426.268 385.272 413.993 386.228 405.753C387.185 397.68 389.615 385.229 391.697 377.991C393.655 370.921 397.708 359.303 400.788 352.396C403.744 345.49 410.042 334.196 414.618 327.281C419.317 320.366 426.746 311.083 431.207 306.355C435.67 301.794 444.231 294.859 450.44 290.794C456.524 286.729 466.091 281.637 471.563 279.76C474.581 278.625 479.348 277.585 484.535 276.744C467.506 282.808 451.923 297.86 439.806 320.355C423.761 350.144 414.91 390.372 415.118 432.186C415.325 474.001 424.575 514.137 440.915 543.761C454.493 568.376 472.187 584.275 491.287 588.853Z" fill="url(#paint3_linear_532_68)"/>
<foreignObject x="0" y="0" width="0" height="0"><div xmlns="http://www.w3.org/1999/xhtml" style="backdrop-filter:blur(46.31px);clip-path:url(#bgblur_1_532_68_clip_path);height:100%;width:100%"></div></foreignObject><path data-figma-bg-blur-radius="92.6182" d="M501.44 275.309C479.204 275.422 458.962 294.956 443.383 324.127C427.804 353.299 419.167 392.8 419.371 433.942C419.575 475.083 428.604 514.495 444.472 543.506C460.339 572.518 481.746 588.752 503.982 588.639L502.68 525.184C502.68 525.184 481.379 526.895 463.36 509.739C462.714 509.123 462.072 508.484 461.435 507.819C447.075 493.939 434.536 463.192 434.391 433.865C434.245 404.538 442.406 378.966 461.479 357.807C481.93 337.151 501.754 338.593 501.754 338.593L501.44 275.309Z" fill="#B1ACAC" fill-opacity="0.3"/>
<defs>
<clipPath id="bgblur_0_532_68_clip_path" transform="translate(0 0)"><path d="M223.267 496.572C245.503 496.572 265.843 477.142 281.566 448.05C297.29 418.958 306.123 379.501 306.123 338.359C306.123 297.217 297.29 257.76 281.566 228.668C265.843 199.577 244.517 183.233 222.281 183.233L223.267 246.694C223.267 246.694 244.577 245.092 262.51 262.339C263.154 262.958 263.793 263.601 264.426 264.269C278.717 278.221 291.103 309.032 291.103 338.359C291.103 367.686 282.816 393.217 263.638 414.278C243.084 434.831 223.267 433.287 223.267 433.287L223.267 496.572Z"/>
</clipPath><clipPath id="bgblur_1_532_68_clip_path" transform="translate(0 0)"><path d="M501.44 275.309C479.204 275.422 458.962 294.956 443.383 324.127C427.804 353.299 419.167 392.8 419.371 433.942C419.575 475.083 428.604 514.495 444.472 543.506C460.339 572.518 481.746 588.752 503.982 588.639L502.68 525.184C502.68 525.184 481.379 526.895 463.36 509.739C462.714 509.123 462.072 508.484 461.435 507.819C447.075 493.939 434.536 463.192 434.391 433.865C434.245 404.538 442.406 378.966 461.479 357.807C481.93 337.151 501.754 338.593 501.754 338.593L501.44 275.309Z"/>
</clipPath><linearGradient id="paint0_linear_532_68" x1="321.53" y1="183" x2="321.53" y2="496.573" gradientUnits="userSpaceOnUse">
<stop stop-color="#76B4C3"/>
<stop offset="1" stop-color="#318FA5"/>
</linearGradient>
<linearGradient id="paint1_linear_532_68" x1="282.131" y1="495.957" x2="282.131" y2="183.078" gradientUnits="userSpaceOnUse">
<stop stop-color="#76B4C3"/>
<stop offset="1" stop-color="#104E5D"/>
</linearGradient>
<linearGradient id="paint2_linear_532_68" x1="404.191" y1="589.38" x2="402.595" y2="275.81" gradientUnits="userSpaceOnUse">
<stop stop-color="#76B4C3"/>
<stop offset="1" stop-color="#318FA5"/>
</linearGradient>
<linearGradient id="paint3_linear_532_68" x1="442.572" y1="274.405" x2="444.173" y2="589.098" gradientUnits="userSpaceOnUse">
<stop stop-color="#76B4C3"/>
<stop offset="1" stop-color="#104E5D"/>
</linearGradient>
</defs>
</svg>
