<svg viewBox="235 163 615 126" fill="none" xmlns="http://www.w3.org/2000/svg">
<path d="M242 278.384L310.893 186.075C315.911 179.351 323.792 175.368 332.183 175.315L378.683 175.02L309.791 267.328C304.772 274.052 296.891 278.036 288.501 278.089L242 278.384Z" fill="black"/>
<path d="M316.969 278.386L362.813 216.96C366.152 212.485 371.396 209.834 376.981 209.799L407.924 209.604L362.08 271.03C358.74 275.505 353.497 278.155 347.912 278.191L316.969 278.386Z" fill="black"/>
<path d="M492.92 167.373L508.824 167.298V278.925H492.92V267.277C486.498 276.312 477.24 280.867 465.218 280.941C454.317 280.941 445.208 277.059 437.89 269.368C430.573 261.677 426.914 252.045 426.914 240.472C426.914 228.973 430.573 219.341 437.89 211.65C445.208 203.96 454.317 200.077 465.218 200.077C477.24 200.077 486.498 204.632 492.92 213.741V167.373ZM467.832 266.531L467.608 266.605C474.701 266.605 480.749 264.141 485.677 259.213C490.605 254.285 493.069 248.013 493.069 240.472C493.069 233.005 490.605 226.808 485.677 221.88C480.749 216.952 474.776 214.488 467.682 214.488C460.365 214.488 454.392 216.952 449.688 221.805C444.984 226.659 442.669 232.856 442.669 240.397C442.669 247.939 445.058 254.211 449.762 259.139C454.466 264.067 460.514 266.531 467.832 266.531ZM558.746 281.016L558.895 281.165C546.725 281.165 536.869 277.432 529.253 269.965C521.637 262.499 517.829 252.717 517.829 240.696C517.829 229.123 521.487 219.49 528.805 211.8C536.122 204.109 545.679 200.226 557.402 200.226C569.573 200.226 579.13 203.885 586.149 211.277C593.168 218.669 596.677 227.928 596.677 239.128C596.677 241.069 596.528 243.235 596.154 245.549H533.658C534.181 252.045 536.645 257.272 541.125 261.229C545.605 265.187 551.653 267.203 559.194 267.203C569.797 267.203 577.114 263.096 581.072 254.808L595.706 259.139C592.944 265.187 588.389 270.339 582.042 274.595C575.696 278.851 567.93 281.016 558.746 281.016ZM533.658 234.947H580.922C580.4 228.824 578.085 223.821 573.978 219.938C569.872 216.056 564.346 214.114 557.477 214.114C550.831 214.114 545.381 216.13 541.05 220.162C536.719 224.195 534.255 229.123 533.658 234.947ZM605.308 279V167.373H621.362V279H605.308ZM671.209 281.016H671.135C659.412 281.016 649.705 277.133 641.94 269.443C634.175 261.752 630.292 252.12 630.292 240.547C630.292 229.048 634.175 219.416 641.94 211.725C649.705 204.034 659.412 200.152 671.135 200.152C682.857 200.152 692.639 203.96 700.404 211.65C708.17 219.341 712.052 228.973 712.052 240.547C712.052 252.12 708.17 261.752 700.404 269.443C692.639 277.133 682.932 281.016 671.209 281.016ZM671.135 266.456C678.452 266.456 684.5 263.992 689.279 259.064C694.057 254.136 696.447 248.013 696.447 240.696C696.447 233.229 694.057 227.032 689.279 222.104C684.5 217.176 678.452 214.712 671.135 214.712C663.817 214.712 657.769 217.176 653.065 222.104C648.361 227.032 645.972 233.229 645.972 240.696C645.972 248.013 648.361 254.136 653.065 259.064C657.769 263.992 663.817 266.456 671.135 266.456ZM737.036 214.338L736.961 214.413C739.276 209.634 742.71 206.05 747.265 203.661C751.82 201.272 757.196 200.45 763.319 201.272V216.205C754.881 214.936 748.385 216.578 743.83 221.133C739.276 225.688 737.036 233.379 737.036 244.28V279H720.982V202.093H737.036V214.338ZM798.83 281.016V280.941C787.929 280.941 778.819 277.059 771.502 269.368C764.185 261.677 760.526 252.045 760.526 240.472C760.526 228.973 764.185 219.341 771.502 211.65C778.819 203.96 787.929 200.077 798.83 200.077C810.851 200.077 820.11 204.632 826.532 213.741V202.093H842.436V279H826.532V267.352C820.11 276.461 810.851 281.016 798.83 281.016ZM801.443 266.531L801.219 266.605C808.313 266.605 814.361 264.141 819.289 259.213C824.217 254.285 826.681 248.013 826.681 240.472C826.681 233.005 824.217 226.808 819.289 221.88C814.361 216.952 808.387 214.488 801.294 214.488C793.977 214.488 788.003 216.952 783.299 221.805C778.595 226.659 776.281 232.856 776.281 240.397C776.281 247.939 778.67 254.211 783.374 259.139C788.078 264.067 794.126 266.531 801.443 266.531Z" fill="black"/>
</svg>
