<svg viewBox="95 50 855 182" fill="none" xmlns="http://www.w3.org/2000/svg">
<g clip-path="url(#clip0_2298_2594)">
<path d="M273.168 143.747C268.485 143.747 264.185 143.317 260.219 142.409C256.253 141.501 252.813 140.211 249.85 138.54C246.888 136.867 244.594 134.766 242.97 132.281C241.345 129.798 240.533 126.931 240.533 123.635C240.533 123.301 240.533 122.966 240.533 122.632C240.533 122.298 240.581 122.011 240.676 121.772H258.451C258.451 121.916 258.451 122.107 258.451 122.346C258.451 122.537 258.451 122.728 258.451 122.919C258.547 124.877 259.263 126.454 260.649 127.696C262.035 128.938 263.898 129.798 266.192 130.323C268.485 130.849 270.874 131.135 273.407 131.135C275.796 131.135 278.089 130.992 280.335 130.657C282.581 130.323 284.444 129.654 285.973 128.699C287.502 127.696 288.219 126.405 288.219 124.782C288.219 122.727 287.311 121.247 285.543 120.244C283.728 119.24 281.291 118.476 278.137 117.903C274.984 117.329 271.448 116.661 267.53 115.944C264.28 115.371 261.127 114.654 258.164 113.747C255.202 112.839 252.478 111.693 250.137 110.259C247.748 108.826 245.884 107.011 244.499 104.718C243.113 102.473 242.396 99.6545 242.396 96.3106C242.396 92.7756 243.161 89.766 244.738 87.2342C246.314 84.7023 248.512 82.6004 251.379 80.9762C254.246 79.3521 257.639 78.1577 261.509 77.3456C265.379 76.5813 269.584 76.1992 274.076 76.1992C278.233 76.1992 282.199 76.5813 285.878 77.3456C289.557 78.11 292.759 79.2566 295.434 80.7852C298.158 82.3139 300.26 84.177 301.885 86.47C303.509 88.7629 304.274 91.3425 304.274 94.2087C304.274 94.6864 304.274 95.164 304.274 95.5461C304.274 95.976 304.226 96.2628 304.131 96.5494H286.356V95.6896C286.356 94.1131 285.782 92.8712 284.683 91.868C283.584 90.8648 282.055 90.1481 280.144 89.5748C278.233 89.0016 276.035 88.7628 273.598 88.7628C272.356 88.7628 270.97 88.8583 269.441 89.0016C267.912 89.1449 266.383 89.4315 264.949 89.8615C263.516 90.2914 262.369 90.8648 261.509 91.5814C260.649 92.2979 260.219 93.2532 260.219 94.3997C260.219 95.8806 260.984 97.0273 262.56 97.8871C264.137 98.747 266.192 99.4156 268.772 99.8934C271.352 100.371 274.124 100.897 277.182 101.47C280.622 102.186 284.062 102.951 287.502 103.715C290.943 104.479 294.097 105.53 296.963 106.868C299.83 108.157 302.076 110.069 303.701 112.505C305.325 114.941 306.137 118.237 306.137 122.298C306.137 126.215 305.325 129.558 303.748 132.281C302.172 135.005 299.878 137.25 296.963 138.921C294.001 140.594 290.56 141.788 286.547 142.552C282.533 143.317 277.994 143.747 273.168 143.747Z" fill="black"/>
<path d="M341.642 143.744C333.949 143.744 328.024 141.786 323.771 137.869C319.567 133.951 317.464 127.789 317.464 119.334V77.7734H335.382V116.419C335.382 118.808 335.669 120.767 336.242 122.391C336.816 123.967 337.676 125.257 338.822 126.26C339.969 127.264 341.355 127.98 342.932 128.41C344.509 128.84 346.324 129.079 348.379 129.079C351.341 129.079 354.017 128.41 356.406 127.12C358.796 125.83 360.754 123.967 362.235 121.674C363.717 119.334 364.434 116.706 364.434 113.744V77.8213H382.447V142.359H367.731L366.392 132.566H365.533C363.574 135.098 361.376 137.199 358.891 138.872C356.454 140.543 353.731 141.786 350.72 142.598C347.71 143.41 344.748 143.744 341.642 143.744Z" fill="black"/>
<path d="M397.448 164.715V77.7253H412.069L413.646 87.0405H414.506C417.039 83.1234 420.24 80.3527 424.158 78.6807C428.029 77.0565 432.281 76.2444 436.868 76.2444C442.841 76.2444 448.001 77.4386 452.397 79.8272C456.793 82.2157 460.138 85.894 462.527 90.8621C464.916 95.8302 466.062 102.231 466.062 110.018C466.062 117.614 464.868 123.919 462.432 128.887C459.995 133.856 456.698 137.582 452.445 140.065C448.192 142.502 443.223 143.744 437.489 143.744C434.622 143.744 431.851 143.409 429.223 142.74C426.548 142.072 424.11 141.069 421.912 139.731C419.714 138.394 417.803 136.721 416.274 134.763H415.557V164.715H397.448ZM431.66 129.126C435.339 129.126 438.349 128.458 440.738 127.12C443.127 125.782 444.848 123.728 445.995 121.005C447.141 118.282 447.714 115.034 447.714 111.26V108.824C447.714 104.907 447.141 101.61 445.995 98.8875C444.848 96.2124 443.08 94.1581 440.738 92.8205C438.349 91.483 435.291 90.8143 431.517 90.8143C427.98 90.8143 425.018 91.5309 422.629 93.0118C420.192 94.4927 418.376 96.5947 417.086 99.3176C415.796 102.04 415.175 105.289 415.175 109.063V110.782C415.175 113.553 415.557 116.133 416.274 118.426C416.99 120.766 418.042 122.725 419.428 124.301C420.814 125.877 422.438 127.12 424.445 127.932C426.499 128.696 428.888 129.126 431.66 129.126Z" fill="black"/>
<path d="M512.555 143.744C504.767 143.744 498.172 142.55 492.725 140.114C487.278 137.677 483.121 133.999 480.254 129.031C477.387 124.063 475.954 117.71 475.954 110.019C475.954 102.328 477.387 95.9741 480.254 91.006C483.121 86.0379 487.231 82.3118 492.582 79.9233C497.934 77.5348 504.431 76.2927 512.029 76.2927C519.483 76.2927 525.791 77.487 530.998 79.8755C536.207 82.264 540.125 85.8468 542.753 90.7194C545.429 95.592 546.719 101.706 546.719 109.063V114.079H494.446C494.589 117.853 495.401 120.958 496.786 123.442C498.172 125.926 500.179 127.741 502.855 128.888C505.531 130.034 508.828 130.608 512.746 130.608C514.705 130.608 516.569 130.368 518.384 129.939C520.2 129.509 521.825 128.792 523.306 127.836C524.787 126.881 526.029 125.735 526.985 124.35C527.988 122.964 528.514 121.388 528.562 119.573H546.575C546.575 123.346 545.716 126.738 544.043 129.748C542.371 132.758 540.077 135.289 537.115 137.343C534.152 139.397 530.616 140.974 526.459 142.072C522.35 143.171 517.668 143.744 512.555 143.744ZM494.732 102.901H527.845C527.845 100.608 527.463 98.6014 526.698 96.8817C525.934 95.162 524.835 93.7287 523.449 92.5823C522.063 91.4358 520.439 90.6238 518.527 90.0506C516.664 89.5251 514.562 89.2383 512.268 89.2383C508.733 89.2383 505.722 89.7638 503.237 90.767C500.753 91.7702 498.793 93.3466 497.408 95.353C496.07 97.4549 495.162 99.939 494.732 102.901Z" fill="black"/>
<path d="M559.48 142.265V77.7279H574.198L575.679 88.2852H576.539C577.351 86.0878 578.546 84.0335 580.123 82.1705C581.651 80.3075 583.562 78.8266 585.808 77.7757C588.054 76.7248 590.635 76.1992 593.454 76.1992C594.935 76.1992 596.273 76.3426 597.515 76.5814C598.757 76.8203 599.808 77.1069 600.716 77.4412V93.1576H593.597C590.826 93.1576 588.436 93.5876 586.429 94.4475C584.423 95.3073 582.75 96.5495 581.413 98.1259C580.074 99.7023 579.071 101.565 578.45 103.715C577.829 105.865 577.542 108.253 577.542 110.928V142.314H559.48V142.265Z" fill="black"/>
<path d="M636.692 143.745C632.2 143.745 628.521 143.029 625.654 141.643C622.787 140.258 620.685 138.203 619.347 135.433C618.009 132.663 617.34 129.27 617.34 125.21V91.2454H607.401V77.7742H618.057L621.497 59.0005H635.354V77.7742H649.832V91.2454H635.354V122.631C635.354 125.067 635.879 126.93 636.883 128.22C637.886 129.51 639.845 130.131 642.712 130.131H649.832V141.786C648.78 142.121 647.443 142.408 645.914 142.694C644.337 142.98 642.76 143.22 641.135 143.411C639.463 143.601 637.982 143.745 636.692 143.745Z" fill="black"/>
<path d="M694.415 143.744C686.626 143.744 680.032 142.55 674.585 140.114C669.138 137.677 664.981 133.999 662.114 129.031C659.247 124.063 657.813 117.71 657.813 110.019C657.813 102.328 659.247 95.9741 662.114 91.006C664.981 86.0379 669.09 82.3118 674.442 79.9233C679.793 77.5348 686.291 76.2927 693.889 76.2927C701.343 76.2927 707.65 77.487 712.858 79.8755C718.066 82.264 721.985 85.8468 724.613 90.7194C727.288 95.592 728.579 101.706 728.579 109.063V114.079H676.353C676.496 117.853 677.308 120.958 678.694 123.442C680.08 125.926 682.087 127.741 684.763 128.888C687.438 130.034 690.735 130.608 694.653 130.608C696.612 130.608 698.476 130.368 700.291 129.939C702.107 129.509 703.732 128.792 705.213 127.836C706.695 126.881 707.936 125.735 708.892 124.35C709.896 122.964 710.421 121.388 710.469 119.573H728.483C728.483 123.346 727.623 126.738 725.95 129.748C724.278 132.758 721.984 135.289 719.022 137.343C716.059 139.397 712.524 140.974 708.367 142.072C704.21 143.171 699.575 143.744 694.415 143.744ZM676.591 102.901H709.705C709.705 100.608 709.322 98.6014 708.558 96.8817C707.793 95.162 706.694 93.7287 705.309 92.5823C703.923 91.4358 702.298 90.6238 700.387 90.0506C698.523 89.5251 696.421 89.2383 694.128 89.2383C690.592 89.2383 687.582 89.7638 685.097 90.767C682.612 91.7702 680.653 93.3466 679.267 95.353C677.93 97.4549 677.022 99.939 676.591 102.901Z" fill="black"/>
<path d="M762.024 143.747C759.158 143.747 756.291 143.46 753.424 142.886C750.557 142.314 748.025 141.358 745.779 140.068C743.534 138.778 741.718 136.916 740.332 134.479C738.946 132.09 738.229 128.986 738.229 125.211C738.229 120.387 739.376 116.47 741.67 113.508C743.963 110.546 747.26 108.301 751.608 106.772C755.956 105.244 761.07 104.24 766.994 103.763C772.919 103.285 779.465 103.046 786.585 103.046V99.2245C786.585 97.0271 786.107 95.2117 785.151 93.7786C784.196 92.3455 782.762 91.1992 780.755 90.3871C778.749 89.575 776.073 89.145 772.728 89.145C769.765 89.145 767.281 89.4317 765.178 90.0527C763.076 90.6737 761.499 91.4858 760.4 92.4412C759.302 93.3967 758.728 94.5908 758.728 95.8806V97.3614H741.049C740.953 96.8837 740.905 96.4538 740.858 96.1194C740.809 95.785 740.809 95.403 740.809 94.8775C740.809 91.1037 742.1 87.8075 744.633 84.9891C747.164 82.1706 750.891 80.0207 755.718 78.4921C760.543 76.9634 766.421 76.1992 773.206 76.1992C779.991 76.1992 785.677 76.9158 790.312 78.3967C794.946 79.8776 798.482 82.1706 800.92 85.2757C803.356 88.3808 804.599 92.3456 804.599 97.1704V125.498C804.599 126.979 804.981 128.078 805.745 128.89C806.51 129.654 807.466 130.037 808.612 130.037H813.772V141.549C812.865 141.931 811.432 142.361 809.472 142.839C807.513 143.269 805.22 143.508 802.592 143.508C799.581 143.508 797.049 143.126 795.09 142.361C793.131 141.597 791.602 140.546 790.503 139.161C789.404 137.775 788.591 136.246 788.114 134.431H787.11C785.39 136.246 783.288 137.823 780.803 139.256C778.319 140.689 775.499 141.788 772.346 142.505C769.24 143.364 765.799 143.747 762.024 143.747ZM767.424 130.466C769.813 130.466 772.107 130.179 774.353 129.558C776.598 128.937 778.605 128.078 780.421 126.979C782.237 125.88 783.67 124.495 784.817 122.823C785.964 121.151 786.537 119.336 786.537 117.377V113.794C780.134 113.794 774.735 114.081 770.196 114.702C765.704 115.323 762.216 116.326 759.827 117.759C757.438 119.193 756.195 121.151 756.195 123.731C756.195 125.355 756.673 126.693 757.677 127.648C758.68 128.651 760.018 129.367 761.738 129.798C763.506 130.275 765.369 130.466 767.424 130.466Z" fill="black"/>
<path d="M822.234 142.263V77.7258H836.951L838.432 87.4233H839.292C841.012 84.8914 843.066 82.7895 845.504 81.1175C847.94 79.4456 850.521 78.2035 853.292 77.4391C856.063 76.6748 858.93 76.2927 861.892 76.2927C866.862 76.2927 871.114 77.1525 874.507 78.92C877.9 80.6875 880.576 83.5061 882.343 87.4233H883.203C885.019 84.8914 887.122 82.7895 889.511 81.1175C891.9 79.4456 894.575 78.2035 897.49 77.4391C900.405 76.6748 903.367 76.2927 906.38 76.2927C911.205 76.2927 915.316 77.1048 918.706 78.729C922.096 80.3532 924.727 82.9804 926.637 86.5631C928.5 90.1459 929.459 94.7319 929.459 100.321V142.263H911.297V103.378C911.297 101.085 911.013 99.1269 910.485 97.5027C909.962 95.8785 909.196 94.541 908.244 93.5856C907.24 92.5823 905.997 91.9135 904.517 91.4836C902.984 91.0537 901.361 90.8626 899.688 90.8626C897.012 90.8626 894.527 91.4837 892.282 92.7735C890.036 94.0633 888.221 95.8308 886.882 98.1716C885.545 100.512 884.876 103.14 884.876 106.101V142.263H866.957V103.378C866.957 101.085 866.671 99.1269 866.098 97.5027C865.524 95.8785 864.712 94.541 863.708 93.5856C862.705 92.5823 861.463 91.9135 860.029 91.4836C858.596 91.0537 856.923 90.8626 855.06 90.8626C852.337 90.8626 849.899 91.4837 847.654 92.7735C845.408 94.0633 843.64 95.8308 842.302 98.1716C841.012 100.512 840.343 103.14 840.343 106.101V142.263H822.234Z" fill="black"/>
</g>
<g clip-path="url(#clip1_2298_2594)">
<path d="M203.226 77.9881H229.473V88.1287C229.473 101.879 218.363 112.993 204.614 112.993H203.225V77.9881H203.226ZM165.87 63.2642H203.226V158.967H198.783C171.703 158.967 166.288 140.076 166.288 123.269L165.87 63.2642ZM105.184 84.933C105.184 102.018 117.404 108.269 131.014 110.353H105.184V159.246H130.043C155.039 159.246 157.956 148.134 157.956 137.577C157.956 124.659 149.067 115.631 135.32 112.157H157.956V63.2642H133.097C108.1 63.2642 105.184 74.3764 105.184 84.933Z" fill="black"/>
</g>
<mask id="mask0_2298_2594" style="mask-type:alpha" maskUnits="userSpaceOnUse" x="559" y="169" width="372" height="54">
<path d="M571.965 198.174C571.965 200.689 572.445 202.884 573.406 204.759C574.412 206.589 575.852 208.006 577.727 209.012C579.602 209.973 581.912 210.453 584.656 210.453C587.4 210.453 589.709 209.973 591.584 209.012C593.459 208.006 594.877 206.589 595.837 204.759C596.843 202.884 597.346 200.689 597.346 198.174V169.5H610.311V198.791C610.311 203.456 609.237 207.526 607.087 211.002C604.938 214.477 601.942 217.199 598.101 219.165C594.259 221.086 589.778 222.046 584.656 222.046C579.534 222.046 575.052 221.086 571.21 219.165C567.369 217.199 564.374 214.477 562.224 211.002C560.075 207.526 559 203.456 559 198.791V169.5H571.965V198.174Z" fill="white"/>
<path d="M618.956 220.949V169.5H631.853V210.522L628.354 207.915L658.812 169.5H672.531L630.618 220.949H618.956ZM643.583 196.047L652.912 188.021L673.217 220.949H658.537L643.583 196.047Z" fill="white"/>
<path d="M686.275 192.137H705.551C707.975 192.137 709.896 191.589 711.313 190.491C712.731 189.348 713.44 187.77 713.44 185.758C713.44 183.746 712.731 182.191 711.313 181.093C709.896 179.95 707.975 179.378 705.551 179.378H684.423L690.254 172.999V220.949H677.289V169.5H707.266C711.108 169.5 714.469 170.186 717.35 171.558C720.231 172.93 722.472 174.828 724.073 177.252C725.673 179.675 726.474 182.511 726.474 185.758C726.474 188.959 725.673 191.772 724.073 194.195C722.472 196.619 720.231 198.517 717.35 199.889C714.469 201.261 711.108 201.947 707.266 201.947H686.275V192.137ZM694.575 196.871H709.187L728.12 220.949H713.097L694.575 196.871Z" fill="white"/>
<path d="M742.47 210.59V200.095H778.004V210.59H742.47ZM768.949 169.5L792.684 220.949H778.896L758.522 174.919H762.501L742.196 220.949H728.339L752.143 169.5H768.949Z" fill="white"/>
<path d="M797.236 169.5H810.201V220.949H797.236V169.5Z" fill="white"/>
<path d="M867.204 212.099L863.019 212.854V169.5H875.573V220.949H859.246L827.897 177.595L832.081 176.84V220.949H819.528V169.5H836.334L867.204 212.099Z" fill="white"/>
<path d="M928.18 190.422V200.026H890.931V190.422H928.18ZM899.712 195.224L896.282 216.49L890.862 210.316H930.375V220.949H883.317L887.295 195.224L883.317 169.5H930.032V180.133H890.862L896.282 173.959L899.712 195.224Z" fill="white"/>
</mask>
<g mask="url(#mask0_2298_2594)">
<rect x="557.618" y="169.01" width="381.209" height="26.4592" fill="black"/>
</g>
<mask id="mask1_2298_2594" style="mask-type:alpha" maskUnits="userSpaceOnUse" x="559" y="169" width="372" height="54">
<path d="M571.965 198.174C571.965 200.689 572.445 202.884 573.406 204.759C574.412 206.589 575.852 208.006 577.727 209.012C579.602 209.973 581.912 210.453 584.656 210.453C587.4 210.453 589.709 209.973 591.584 209.012C593.459 208.006 594.877 206.589 595.837 204.759C596.843 202.884 597.346 200.689 597.346 198.174V169.5H610.311V198.791C610.311 203.456 609.237 207.526 607.087 211.002C604.938 214.477 601.942 217.199 598.101 219.165C594.259 221.086 589.778 222.046 584.656 222.046C579.534 222.046 575.052 221.086 571.21 219.165C567.369 217.199 564.374 214.477 562.224 211.002C560.075 207.526 559 203.456 559 198.791V169.5H571.965V198.174Z" fill="white"/>
<path d="M618.956 220.949V169.5H631.853V210.522L628.354 207.915L658.812 169.5H672.531L630.618 220.949H618.956ZM643.583 196.047L652.912 188.021L673.217 220.949H658.537L643.583 196.047Z" fill="white"/>
<path d="M686.275 192.137H705.551C707.975 192.137 709.896 191.589 711.313 190.491C712.731 189.348 713.44 187.77 713.44 185.758C713.44 183.746 712.731 182.191 711.313 181.093C709.896 179.95 707.975 179.378 705.551 179.378H684.423L690.254 172.999V220.949H677.289V169.5H707.266C711.108 169.5 714.469 170.186 717.35 171.558C720.231 172.93 722.472 174.828 724.073 177.252C725.673 179.675 726.474 182.511 726.474 185.758C726.474 188.959 725.673 191.772 724.073 194.195C722.472 196.619 720.231 198.517 717.35 199.889C714.469 201.261 711.108 201.947 707.266 201.947H686.275V192.137ZM694.575 196.871H709.187L728.12 220.949H713.097L694.575 196.871Z" fill="white"/>
<path d="M742.47 210.59V200.095H778.004V210.59H742.47ZM768.949 169.5L792.684 220.949H778.896L758.522 174.919H762.501L742.196 220.949H728.339L752.143 169.5H768.949Z" fill="white"/>
<path d="M797.236 169.5H810.201V220.949H797.236V169.5Z" fill="white"/>
<path d="M867.204 212.099L863.019 212.854V169.5H875.573V220.949H859.246L827.897 177.595L832.081 176.84V220.949H819.528V169.5H836.334L867.204 212.099Z" fill="white"/>
<path d="M928.18 190.422V200.026H890.931V190.422H928.18ZM899.712 195.224L896.282 216.49L890.862 210.316H930.375V220.949H883.317L887.295 195.224L883.317 169.5H930.032V180.133H890.862L896.282 173.959L899.712 195.224Z" fill="white"/>
</mask>
<g mask="url(#mask1_2298_2594)">
<rect x="557.618" y="195.469" width="381.209" height="26.4592" fill="black"/>
</g>
<defs>
<clipPath id="clip0_2298_2594">
<rect width="693.929" height="105.716" fill="white" transform="translate(240.533 59.0002)"/>
</clipPath>
<clipPath id="clip1_2298_2594">
<rect width="124.784" height="96.1791" fill="white" transform="translate(105 63.0659)"/>
</clipPath>
</defs>
</svg>
